<?xml version="1.0" standalone="no"?>
<!DOCTYPE svg PUBLIC "-//W3C//DTD SVG 20010904//EN"
 "http://www.w3.org/TR/2001/REC-SVG-20010904/DTD/svg10.dtd">
<svg version="1.0" xmlns="http://www.w3.org/2000/svg"
 width="3400.000000pt" height="2485.000000pt" viewBox="0 0 3400.000000 2485.000000"
 preserveAspectRatio="xMidYMid meet">

<g transform="translate(0.000000,2485.000000) scale(0.100000,-0.100000)"
fill="#000000" stroke="none">
<path d="M20573 22830 c-56 -29 -122 -95 -144 -146 -14 -31 -20 -79 -25 -215
l-7 -174 -106 -41 c-58 -23 -130 -52 -158 -65 l-52 -23 -115 112 c-68 66 -133
121 -158 132 -60 27 -157 27 -217 -2 -62 -29 -719 -683 -751 -748 -20 -38 -22
-55 -17 -122 7 -100 26 -134 157 -271 l100 -105 -49 -114 c-27 -62 -54 -132
-61 -154 l-12 -41 -82 -7 c-44 -3 -118 -6 -163 -6 -72 0 -88 -4 -145 -33 -49
-25 -71 -45 -100 -87 l-37 -55 -1 -531 0 -530 29 -46 c16 -25 44 -57 63 -71
66 -51 102 -59 278 -65 l166 -5 27 -76 c15 -42 45 -112 65 -156 l38 -80 -115
-123 c-64 -68 -123 -135 -131 -150 -21 -40 -20 -187 3 -230 22 -41 411 -446
585 -610 71 -67 146 -129 166 -137 54 -23 170 -20 224 6 24 12 95 71 158 132
l115 110 97 -46 c53 -25 123 -53 155 -63 l57 -18 1 -45 c0 -25 4 -105 8 -177
7 -116 11 -137 34 -177 30 -51 71 -89 129 -118 38 -20 55 -20 551 -17 503 3
513 3 552 25 55 29 118 100 138 154 11 29 19 98 24 203 l8 158 85 32 c47 18
118 48 158 66 l72 33 118 -115 c140 -137 172 -153 287 -146 61 4 82 10 117 34
65 45 672 653 707 708 28 45 31 58 31 127 0 102 -25 147 -157 287 l-101 108
35 80 c20 43 48 113 63 154 l28 75 156 7 c101 4 174 12 206 23 54 18 115 77
150 145 21 41 21 48 18 553 -3 505 -3 513 -25 553 -26 49 -82 100 -137 125
-35 16 -67 19 -207 19 l-166 0 -18 48 c-9 26 -40 100 -67 165 l-50 118 114
117 c63 64 122 133 131 154 25 53 23 167 -4 221 -30 60 -679 707 -739 738 -36
18 -61 22 -125 22 -48 -1 -95 -7 -117 -16 -20 -8 -88 -65 -152 -126 -64 -61
-118 -111 -120 -111 -2 0 -48 20 -102 44 -55 24 -124 51 -155 61 l-56 18 -6
162 c-3 90 -11 182 -18 206 -17 56 -101 142 -155 160 -28 9 -177 13 -539 16
-495 4 -500 4 -542 -17z m717 -680 c6 -143 13 -166 66 -229 36 -43 98 -73 233
-111 160 -45 280 -96 420 -179 l120 -71 86 0 c49 0 99 6 118 13 18 8 72 53
121 100 50 48 92 87 95 87 3 0 49 -44 103 -97 l97 -97 -74 -77 c-101 -106
-119 -143 -120 -244 0 -71 4 -88 31 -140 151 -291 173 -345 243 -590 25 -86
72 -145 143 -181 44 -22 67 -26 189 -31 l140 -6 -3 -141 -3 -141 -125 -6
c-148 -8 -196 -20 -250 -67 -52 -44 -72 -84 -120 -242 -49 -163 -96 -273 -179
-420 -63 -110 -66 -118 -69 -193 -4 -68 -1 -84 22 -130 14 -29 60 -91 102
-136 l77 -83 -101 -101 -101 -101 -86 83 c-111 107 -151 125 -260 119 -78 -4
-87 -7 -183 -62 -146 -83 -276 -139 -445 -190 -81 -24 -165 -55 -185 -69 -21
-14 -50 -47 -67 -78 -29 -52 -30 -60 -33 -196 l-4 -143 -144 0 c-79 0 -144 1
-144 3 0 1 -5 57 -9 124 -11 144 -28 190 -94 250 -34 32 -63 47 -119 63 -234
68 -294 93 -592 249 -60 31 -79 36 -135 35 -88 -1 -134 -26 -239 -127 l-83
-81 -99 99 c-55 55 -100 102 -100 105 0 3 35 43 76 89 97 107 113 143 114 243
0 73 -3 82 -47 165 -110 208 -136 266 -193 444 -34 103 -71 203 -83 221 -12
18 -44 46 -71 63 -48 29 -53 30 -198 33 l-148 4 0 147 0 148 135 6 c237 11
282 50 360 307 44 148 106 288 212 483 78 143 53 254 -92 397 l-75 75 102 102
102 102 78 -72 c108 -100 128 -113 195 -126 82 -16 135 0 333 102 126 65 207
98 342 141 97 32 191 67 209 79 75 50 109 137 109 276 0 36 3 83 6 104 l7 38
141 -3 141 -3 5 -135z"/>
<path d="M20970 21559 c-265 -26 -560 -159 -781 -352 -232 -202 -407 -511
-464 -822 -27 -141 -16 -456 19 -586 67 -253 183 -462 359 -646 360 -376 872
-524 1378 -398 258 65 472 186 659 376 205 206 334 446 396 734 24 113 24 437
0 548 -41 187 -125 385 -230 537 -72 105 -231 266 -339 344 -158 113 -333 194
-514 237 -63 15 -364 44 -393 37 -3 0 -43 -4 -90 -9z m405 -579 c304 -98 521
-327 600 -636 24 -92 25 -283 2 -377 -77 -314 -298 -551 -602 -647 -90 -28
-286 -38 -389 -20 -348 61 -629 335 -700 682 -31 152 -15 347 40 483 81 198
244 372 438 465 144 69 198 80 381 76 132 -3 172 -7 230 -26z"/>
<path d="M13158 19196 c-53 -19 -114 -71 -146 -124 l-27 -47 -5 -284 -5 -284
-91 -27 c-139 -41 -226 -76 -386 -153 l-147 -70 -180 175 c-99 96 -197 187
-218 201 -72 50 -213 55 -281 11 -90 -59 -969 -939 -1001 -1003 -16 -31 -21
-59 -21 -118 1 -122 10 -138 255 -393 50 -52 103 -109 118 -126 l28 -32 -74
-168 c-41 -93 -96 -230 -122 -304 -27 -74 -51 -138 -55 -143 -3 -4 -132 -11
-286 -15 -280 -8 -280 -8 -326 -35 -51 -30 -89 -71 -118 -128 -19 -37 -20 -64
-20 -751 l0 -713 30 -52 c30 -53 67 -86 130 -119 30 -15 72 -18 323 -23 l289
-6 43 -130 c46 -140 89 -243 164 -400 l48 -100 -197 -200 c-147 -150 -200
-210 -211 -240 -19 -55 -16 -163 5 -204 41 -78 970 -1011 1034 -1038 50 -21
163 -18 216 5 29 13 109 83 241 210 l198 191 66 -33 c98 -50 276 -123 425
-175 l131 -46 5 -280 c5 -268 6 -282 28 -323 30 -56 94 -118 140 -134 29 -10
183 -13 717 -13 374 0 702 4 729 8 38 7 60 19 99 55 87 81 90 95 97 411 l5
274 140 47 c168 56 205 71 359 144 65 31 123 56 128 56 5 0 33 -25 61 -57 96
-105 337 -323 375 -339 48 -20 157 -20 205 -1 68 29 949 900 1024 1013 34 52
35 55 32 137 -5 108 -12 117 -241 353 l-178 182 43 93 c58 124 159 375 188
467 l23 72 273 0 c270 0 274 0 321 24 54 28 110 83 141 141 l22 40 -3 705 -3
705 -22 41 c-28 53 -74 99 -127 127 -39 21 -56 22 -320 27 l-279 5 -47 140
c-49 146 -108 293 -166 407 -19 37 -34 72 -34 77 0 6 85 97 189 204 216 222
226 239 220 360 -4 62 -9 81 -34 118 -49 74 -944 963 -995 989 -55 28 -152 37
-217 21 -60 -15 -97 -46 -301 -245 -157 -154 -164 -160 -190 -149 -15 6 -82
36 -150 67 -67 31 -180 76 -250 101 -70 25 -143 51 -162 58 l-35 13 -5 284 -5
285 -31 55 c-22 41 -47 66 -93 98 l-63 42 -701 0 c-553 -1 -710 -4 -739 -14z
m1082 -743 c1 -257 5 -280 56 -354 39 -57 90 -83 242 -124 256 -69 520 -176
690 -279 136 -82 178 -98 257 -98 50 1 86 6 112 19 21 9 116 93 212 186 l175
168 240 -240 240 -240 -135 -138 c-178 -183 -215 -230 -228 -296 -20 -97 -3
-160 87 -320 130 -230 207 -420 282 -693 22 -79 46 -157 54 -172 20 -37 63
-76 116 -103 42 -21 60 -23 293 -27 l247 -5 0 -343 0 -344 -225 0 c-270 0
-311 -7 -372 -63 -59 -54 -64 -65 -124 -273 -77 -267 -152 -446 -282 -674 -73
-129 -87 -167 -87 -239 0 -91 30 -137 212 -326 l161 -167 -239 -239 -239 -239
-179 170 c-162 154 -185 172 -235 186 -91 27 -153 16 -278 -52 -337 -181 -484
-239 -844 -338 -82 -23 -148 -71 -179 -131 -25 -48 -25 -54 -28 -302 l-3 -253
-345 0 -344 0 -1 183 c0 246 -9 321 -43 375 -45 71 -88 94 -273 146 -268 75
-404 133 -791 337 -64 34 -81 39 -140 39 -43 0 -81 -7 -108 -19 -38 -17 -226
-184 -339 -300 l-50 -51 -237 237 c-131 131 -238 242 -238 247 0 5 74 85 165
177 95 96 172 183 180 203 9 21 15 68 15 115 0 75 -2 84 -45 163 -171 315
-244 483 -305 703 -62 223 -68 239 -106 284 -71 82 -85 86 -371 89 l-253 3 0
349 0 348 243 3 243 4 60 30 c76 39 114 94 143 207 68 262 173 526 300 753 43
77 84 158 91 179 16 50 8 151 -15 196 -10 19 -84 103 -164 185 -81 83 -155
160 -166 173 l-19 23 239 239 238 239 166 -160 c191 -185 230 -209 332 -209
66 0 71 2 310 123 268 134 370 175 622 247 181 52 227 75 270 138 38 54 47
123 47 375 l0 207 345 0 345 0 0 -237z"/>
<path d="M13666 17350 c-742 -84 -1379 -588 -1631 -1290 -99 -276 -130 -531
-105 -859 39 -503 299 -1000 701 -1336 643 -537 1583 -602 2300 -159 193 120
414 322 548 504 188 253 316 559 367 876 24 148 24 479 0 614 -79 446 -265
802 -577 1105 -289 280 -638 458 -1039 530 -111 20 -441 28 -564 15z m486
-574 c468 -91 872 -423 1047 -861 78 -196 93 -267 98 -485 6 -218 -4 -299 -59
-469 -64 -202 -163 -368 -309 -525 -204 -218 -423 -348 -708 -423 -129 -34
-417 -44 -558 -19 -297 52 -536 178 -759 400 -178 179 -276 331 -345 537 -57
171 -69 246 -69 450 0 213 12 295 66 451 71 204 172 371 317 524 191 202 413
330 702 405 102 26 124 28 307 29 130 0 221 -5 270 -14z"/>
<path d="M20735 14570 c-228 -5 -230 -5 -276 -32 -56 -33 -95 -77 -122 -137
-16 -36 -20 -75 -25 -226 l-5 -183 -91 -33 c-50 -17 -133 -51 -185 -75 l-94
-44 -137 134 c-156 152 -175 162 -294 153 -51 -5 -79 -13 -109 -33 -23 -15
-200 -185 -394 -378 -264 -263 -357 -362 -372 -396 -27 -60 -28 -169 -2 -225
10 -22 74 -98 141 -168 l123 -129 -23 -51 c-12 -29 -46 -113 -76 -187 l-53
-135 -198 -8 c-183 -8 -201 -10 -239 -33 -50 -28 -90 -74 -115 -129 -17 -37
-19 -79 -19 -568 0 -587 -2 -568 68 -640 72 -75 93 -81 311 -87 l193 -5 33
-92 c19 -50 53 -135 76 -187 l42 -95 -116 -121 c-128 -134 -157 -182 -164
-273 -7 -82 9 -134 58 -199 59 -76 671 -681 726 -717 42 -28 54 -31 127 -31
113 1 142 17 290 160 l124 121 39 -17 c21 -9 103 -43 183 -74 l145 -58 6 -184
c7 -206 16 -236 88 -311 72 -76 34 -72 636 -75 360 -2 552 0 576 7 47 14 124
83 151 135 19 36 22 64 28 233 4 106 9 195 11 197 2 2 29 11 59 21 30 10 112
42 183 72 l127 55 118 -112 c64 -62 136 -123 159 -137 40 -23 50 -25 151 -21
l109 3 49 40 c27 21 198 188 380 370 368 368 374 376 374 491 -1 103 -21 138
-165 284 l-123 125 47 105 c26 58 61 142 77 187 27 79 31 83 59 84 17 0 107 4
200 8 151 6 175 9 206 29 53 32 88 70 116 125 l24 48 -3 542 c-3 608 0 581
-78 650 -69 63 -93 69 -304 76 l-189 6 -18 51 c-9 29 -43 113 -74 189 l-57
136 121 124 c73 75 129 141 141 167 28 61 27 167 -2 227 -15 33 -120 145 -371
398 -312 314 -356 354 -410 379 -48 21 -77 27 -132 28 -104 0 -145 -22 -284
-159 -65 -63 -121 -115 -125 -115 -4 0 -40 14 -79 32 -40 17 -121 50 -182 73
l-110 41 -5 189 c-6 215 -12 237 -86 311 -70 70 -88 73 -434 76 -168 2 -408 1
-535 -2z m485 -664 c0 -68 5 -148 10 -177 21 -111 104 -181 263 -219 195 -48
333 -105 550 -227 l98 -56 72 5 c41 3 89 13 112 24 22 10 87 63 143 118 l104
99 124 -124 124 -123 -84 -86 c-105 -108 -134 -152 -146 -224 -14 -89 1 -144
84 -296 90 -166 144 -296 191 -465 40 -141 58 -178 110 -224 41 -36 90 -51
166 -51 31 0 97 -3 147 -6 l92 -7 0 -173 0 -174 -107 0 c-142 0 -217 -13 -272
-48 -60 -36 -86 -77 -117 -181 -94 -317 -118 -377 -245 -606 -41 -75 -44 -85
-44 -155 0 -101 23 -145 140 -268 l94 -99 -122 -121 -122 -121 -107 99 c-128
117 -164 134 -270 129 -54 -3 -86 -11 -123 -30 -332 -174 -342 -178 -643 -270
-99 -30 -147 -67 -180 -137 -24 -52 -27 -71 -30 -204 l-4 -148 -173 0 -172 0
-5 144 c-4 138 -5 146 -37 210 -44 90 -74 108 -278 166 -200 58 -267 85 -457
184 -143 76 -144 76 -221 76 -103 0 -129 -14 -253 -134 l-103 -100 -127 127
-126 126 97 99 c115 118 136 158 137 260 0 69 -2 77 -62 190 -129 245 -169
341 -218 524 -36 132 -64 184 -117 221 -61 42 -89 48 -250 54 l-153 6 0 169
c0 92 1 168 3 168 1 1 73 5 159 9 147 8 160 10 210 38 70 39 109 98 137 205
62 238 105 342 265 643 16 30 21 57 20 111 0 90 -21 127 -145 258 l-92 97 123
124 123 124 101 -96 c118 -112 164 -136 257 -137 65 -1 72 2 270 101 206 103
314 146 461 184 143 36 204 79 243 172 11 27 15 74 15 185 0 82 3 152 7 155 3
4 84 7 180 7 l173 0 0 -124z"/>
<path d="M20815 13185 c-352 -66 -636 -219 -869 -467 -195 -206 -329 -472
-387 -763 -9 -46 -14 -140 -14 -275 0 -178 3 -219 23 -309 69 -305 198 -540
421 -762 220 -219 458 -349 761 -415 106 -24 460 -27 580 -5 592 105 1078 579
1211 1180 25 113 27 486 4 608 -114 596 -600 1079 -1205 1198 -121 24 -420 29
-525 10z m460 -573 c231 -62 438 -208 575 -407 51 -74 108 -205 132 -301 28
-114 30 -314 4 -419 -83 -346 -315 -598 -655 -712 l-103 -35 -192 4 c-213 4
-243 11 -400 89 -242 121 -420 335 -503 606 -24 80 -26 103 -26 248 0 145 3
169 27 249 108 360 399 621 769 692 93 18 278 11 372 -14z"/>
<path d="M14670 6660 c-640 -113 -1171 -619 -1318 -1255 -159 -688 144 -1398
758 -1778 397 -245 918 -305 1362 -157 544 183 975 661 1099 1219 45 203 46
470 3 680 -69 340 -280 693 -548 918 -234 197 -505 326 -784 374 -153 26 -422
25 -572 -1z m525 -739 c88 -23 220 -83 290 -131 165 -114 288 -287 352 -497
24 -79 27 -104 27 -248 1 -172 -8 -220 -61 -353 -46 -116 -103 -202 -198 -297
-129 -129 -284 -214 -459 -252 -93 -20 -279 -20 -372 0 -275 60 -509 245 -634
502 -75 153 -85 201 -84 400 0 159 2 175 28 255 114 344 367 571 709 636 101
19 299 12 402 -15z"/>
<path d="M22220 6673 c-134 -17 -331 -78 -455 -140 -312 -156 -561 -446 -670
-779 -43 -133 -59 -243 -59 -424 0 -183 16 -294 60 -425 152 -454 570 -767
1124 -841 58 -7 131 -14 163 -14 180 0 379 -83 507 -210 120 -121 174 -248
174 -410 0 -159 -46 -276 -149 -375 -243 -236 -642 -259 -936 -53 -111 77
-178 194 -197 343 l-7 60 -373 3 -373 2 6 -77 c28 -349 155 -631 381 -843 225
-210 508 -326 887 -362 400 -37 828 101 1105 357 175 162 313 406 367 650 22
99 31 370 15 491 -51 407 -254 728 -587 928 -204 122 -444 189 -740 207 -302
18 -490 102 -602 270 -61 92 -83 172 -84 304 0 268 100 433 326 541 109 52
197 67 357 61 113 -3 148 -8 215 -31 218 -74 336 -201 366 -396 6 -41 13 -81
15 -87 3 -10 85 -13 370 -13 l367 0 -7 83 c-50 598 -436 1026 -1046 1162 -74
17 -436 29 -520 18z"/>
<path d="M30180 6674 c-14 -2 -65 -9 -115 -15 -49 -6 -153 -27 -230 -46 -610
-152 -1096 -541 -1373 -1098 -164 -331 -236 -626 -249 -1025 -14 -444 62 -816
242 -1185 163 -332 399 -600 717 -814 499 -334 1176 -451 1788 -310 341 79
711 279 988 535 l52 49 -258 265 -258 264 -78 -68 c-303 -264 -700 -393 -1101
-357 -460 40 -841 257 -1082 616 -222 331 -309 793 -233 1240 116 678 567
1123 1225 1206 136 17 424 6 535 -20 248 -57 478 -175 673 -344 l59 -50 259
259 260 259 -63 58 c-322 294 -700 482 -1128 563 -81 15 -565 29 -630 18z"/>
<path d="M2000 4400 l0 -2220 338 0 c988 1 1464 73 1907 290 312 152 531 336
724 607 206 289 309 585 351 1002 15 150 12 533 -5 692 -51 487 -225 892 -509
1187 -166 172 -296 265 -531 378 -257 124 -553 206 -885 248 -222 28 -435 36
-917 36 l-473 0 0 -2220z m1307 1495 c594 -78 998 -369 1176 -850 132 -354
139 -873 17 -1236 -71 -212 -171 -379 -310 -520 -146 -148 -268 -213 -548
-294 -246 -72 -343 -86 -604 -92 -124 -3 -243 -2 -262 1 l-36 7 0 1494 0 1494
33 4 c89 11 425 6 534 -8z"/>
<path d="M6200 4400 l0 -2220 1478 2 1477 3 0 370 0 370 -1107 3 -1108 2 0
555 0 555 920 0 920 0 0 365 0 365 -920 0 -920 0 0 555 0 555 1110 0 1110 0 0
370 0 370 -1480 0 -1480 0 0 -2220z"/>
<path d="M9432 6606 c11 -49 1764 -4594 1770 -4588 4 4 401 1037 883 2296 481
1259 878 2293 881 2297 3 5 -777 9 -1766 9 -1515 0 -1771 -2 -1768 -14z m2436
-735 c-5 -31 -663 -1861 -668 -1861 -5 0 -664 1809 -677 1858 l-5 22 677 0
c657 0 676 -1 673 -19z"/>
<path d="M17500 6246 l0 -374 348 -548 348 -549 -348 -3 -348 -2 0 -1295 0
-1295 368 2 367 3 3 928 2 927 413 0 c227 0 451 5 497 10 553 69 980 323 1169
697 72 144 106 268 123 451 21 231 -11 456 -92 644 -122 283 -271 444 -525
568 -223 109 -443 172 -697 199 -60 7 -394 11 -863 11 l-765 0 0 -374z m1691
-389 c183 -44 318 -115 413 -218 83 -90 101 -143 101 -310 l0 -135 -37 -76
c-85 -171 -290 -293 -558 -333 l-45 -6 -330 527 c-181 289 -336 538 -343 551
l-14 25 374 -5 c293 -3 387 -8 439 -20z"/>
<path d="M24632 4403 l3 -2218 1478 -3 1477 -2 0 375 0 375 -1110 0 -1110 0 2
553 3 552 923 3 922 2 0 365 0 365 -922 2 -923 3 -3 553 -2 552 1110 0 1110 0
0 370 0 370 -1480 0 -1480 0 2 -2217z"/>
<path d="M13480 2550 l0 -370 1460 0 1460 0 0 370 0 370 -1460 0 -1460 0 0
-370z"/>
</g>
</svg>
